<?xml version="1.0" ?><svg height="24px" id="svg2" version="1.1" viewBox="0 0 48 48" width="25px" xmlns="http://www.w3.org/2000/svg" xmlns:cc="http://creativecommons.org/ns#000000" xmlns:dc="http://purl.org/dc/elements/1.1/" xmlns:rdf="http://www.w3.org/1999/02/22-rdf-syntax-ns#000000" xmlns:svg="http://www.w3.org/2000/svg"><defs id="defs2992"><linearGradient id="linearGradient4879"><stop id="stop4881" offset="0" style="stop-color:#000000ff0000;stop-opacity:0"/><stop id="stop4883" offset="1" style="stop-color:#ffffffff;stop-opacity:1"/></linearGradient><linearGradient id="linearGradient4879-9"><stop id="stop4881-2" offset="0" style="stop-color:#ffffffff0000;stop-opacity:0"/><stop id="stop4883-6" offset="1" style="stop-color:#ffffff;stop-opacity:1"/></linearGradient></defs><path d="M 39,24 A 15,15 0 0 1 9,24 15,15 0 1 1 39,24 z" id="path5280" style="fill:#faeb14;fill-opacity:1;stroke:none"/><path d="m 30.640273,11.106082 c -0.490652,0 -0.983649,0.01634 -1.481291,0.05067 -1.990566,0.165414 -3.995897,0.644331 -5.874086,1.583531 -2.781736,1.39082 -6.602307,1.460451 -9.705014,1.072578 -3.102708,-0.387874 -5.4143754,-1.174736 -5.4143754,-1.174736 a 1.6395478,1.6395478 0 1 0 -1.0215802,3.115738 c 0,0 2.5919173,0.847503 6.0273236,1.277057 3.435405,0.42939 7.787478,0.499021 11.543858,-1.379215 2.781735,-1.39082 6.602305,-1.460451 9.705012,-1.072578 3.102707,0.387711 5.414375,1.174736 5.414375,1.174736 a 1.6395478,1.6395478 0 1 0 1.02158,-3.115738 c 0,0 -2.591917,-0.847666 -6.027323,-1.277057 -1.288278,-0.161818 -2.716519,-0.271495 -4.188479,-0.255313 z m 0,9.807169 c -0.490652,0 -0.983649,0.01635 -1.481291,0.05067 -1.990566,0.165414 -3.995897,0.644331 -5.874086,1.583531 -2.781736,1.39082 -6.602307,1.460451 -9.705014,1.072577 -3.102708,-0.387873 -5.4143754,-1.174735 -5.4143754,-1.174735 a 1.6395478,1.6395478 0 1 0 -1.0215802,3.115738 c 0,0 2.5919173,0.847503 6.0273236,1.277057 3.435405,0.42939 7.787478,0.499021 11.543858,-1.379215 2.781735,-1.39082 6.602305,-1.460451 9.705012,-1.072578 3.102707,0.38771 5.414375,1.174736 5.414375,1.174736 a 1.6395478,1.6395478 0 1 0 1.02158,-3.115738 c 0,0 -2.591917,-0.847667 -6.027323,-1.277057 -1.288278,-0.161818 -2.716519,-0.271495 -4.188479,-0.255313 z m 0,9.80717 c -0.490652,0 -0.983649,0.01635 -1.481291,0.05067 -1.990566,0.165414 -3.995897,0.644331 -5.874086,1.583531 -2.781736,1.39082 -6.602307,1.460451 -9.705014,1.072577 -3.102708,-0.387873 -5.4143754,-1.174735 -5.4143754,-1.174735 a 1.6395478,1.6395478 0 1 0 -1.0215802,3.115737 c 0,0 2.5919173,0.847503 6.0273236,1.277057 3.435405,0.429391 7.787478,0.499022 11.543858,-1.379215 2.781735,-1.39082 6.602305,-1.460451 9.705012,-1.072577 3.102707,0.38771 5.414375,1.174735 5.414375,1.174735 a 1.6395478,1.6395478 0 1 0 1.02158,-3.115737 c 0,0 -2.591917,-0.847667 -6.027323,-1.277057 -1.288278,-0.161819 -2.716519,-0.271495 -4.188479,-0.255314 z" id="path3011" style="font-size:medium;font-style:normal;font-variant:normal;font-weight:normal;font-stretch:normal;text-indent:0;text-align:start;text-decoration:none;line-height:normal;letter-spacing:normal;word-spacing:normal;text-transform:none;direction:ltr;block-progression:tb;writing-mode:lr-tb;text-anchor:start;baseline-shift:baseline;color:#000000;fill:#000000;fill-opacity:1;stroke:none;stroke-width:2;marker:none;visibility:visible;display:inline;overflow:visible;enable-background:accumulate;font-family:Sans;-inkscape-font-specification:Sans"/></svg>